<?xml version="1.0" encoding="utf-8"?>
<!-- Generator: Adobe Illustrator 21.1.0, SVG Export Plug-In . SVG Version: 6.00 Build 0)  -->
<svg version="1.1" id="Logo" xmlns="http://www.w3.org/2000/svg" xmlns:xlink="http://www.w3.org/1999/xlink" x="0px" y="0px"
	 viewBox="0 0 240.6 43.1" style="enable-background:new 0 0 240.6 43.1;" xml:space="preserve">
<style type="text/css">
	.st0{fill:#FFFFFF;}
	.st1{fill:#F0AB00;}
</style>
<g>
	<path class="st0" d="M0,28.1l4-2.4c1.3,2.6,3.7,4.1,6.5,4.1c2.4,0,4.2-0.9,4.2-2.7c0-1.8-1.7-2.6-4.8-3.5C5.5,22.4,1,21.3,1,16.3
		c0-4.5,3.5-7.1,8.6-7.1c4.9,0,7.8,2.4,9.5,4.9l-3.7,2.8c-1.3-2-3.6-3.4-5.9-3.4c-2.2,0-3.5,1-3.5,2.4c0,1.9,1.8,2.6,4.9,3.5
		c4.2,1.1,8.7,2.5,8.7,7.4c0,3.8-2.9,7.3-9.6,7.3C5,33.9,1.8,31.5,0,28.1z M20.7,33.5l8.5-24h5l8.5,24h-5.3l-1.8-5.3h-8.1l-1.8,5.3
		H20.7z M28.7,24.3h5.6l-2.7-8.1h-0.1L28.7,24.3z M45.3,33.5V9.6H54c5.1,0,9.8,1.4,9.8,7.7c0,6.4-5,7.8-9.8,7.8h-3.4v8.5H45.3z
		 M50.5,20.9h3.6c3.3,0,4.5-1.3,4.5-3.6c0-2.2-1.2-3.5-4.5-3.5h-3.6V20.9z M74.1,21.5c0-8.3,4.8-12.4,10.9-12.4c6,0,8.7,3.2,9.7,7.5
		l-5,1.5c-0.8-2.7-1.9-4.6-4.7-4.6c-3.6,0-5.6,3.1-5.6,8c0,5,2,8.2,5.6,8.2c2.8,0,4.2-1.8,5-5l4.9,1.1c-1.2,4.8-4,8.2-10,8.2
		C78.7,33.9,74.1,29.9,74.1,21.5z M96.8,24.9c0-6.7,4.6-9,8.8-9c4.2,0,8.8,2.2,8.8,9c0,6.7-4.6,8.9-8.8,8.9
		C101.4,33.8,96.8,31.5,96.8,24.9z M109.2,24.9c0-2.9-1-5.2-3.6-5.2c-2.5,0-3.6,2.1-3.6,5.2c0,2.9,1,5.3,3.6,5.3
		C108,30.2,109.2,28,109.2,24.9z M116.9,33.4V16.2h5.2v2.7c1-1.4,2.9-3.1,5.9-3.1c2.9,0,5,1.5,5,5v12.6h-5.2V22.5
		c0-1.6-0.6-2.4-2-2.4c-1.4,0-2.6,0.7-3.7,1.7v11.6H116.9z M135.6,24.9c0-6.9,4.9-9,8.7-9c4.7,0,6.5,2.5,7.5,5.3l-4.4,1.5
		c-0.7-2.2-1.7-2.9-3.2-2.9c-2.1,0-3.4,1.8-3.4,5.2c0,3.1,1,5.3,3.4,5.3c1.4,0,2.6-0.7,3.4-3.1l4.3,1.5c-1.1,2.7-3.2,5.2-7.8,5.2
		C140,33.8,135.6,31.5,135.6,24.9z M154.5,28.8V16.2h5.2v11c0,1.5,0.6,2.4,2,2.4c1.4,0,2.6-0.7,3.7-1.7V16.2h5.2v17.2h-5.2v-2.7
		c-1,1.3-2.9,3-5.9,3C156.6,33.8,154.5,32.3,154.5,28.8z M174.4,33.4V16.2h5.2v2.9h0c0.9-1.5,2.6-3.2,5.8-3.2h0.2l-0.1,4.6
		c-0.2,0-1-0.1-1.4-0.1c-2.1,0-3.6,1.1-4.6,2.4v10.7H174.4z"/>
	<g>
		<path class="st1" d="M218.1,28.2c-3.6,0-6.6-3-6.6-6.6c0-3.6,2.9-6.6,6.6-6.6c1.8,0,3.5,0.7,4.6,1.9l3.4-3.4
			c-2.1-2.1-4.9-3.3-8.1-3.3c-6.3,0-11.4,5.1-11.4,11.4c0,6.3,5.1,11.4,11.4,11.4c3.1,0,6-1.3,8.1-3.3l-3.4-3.4
			C221.5,27.4,219.9,28.2,218.1,28.2"/>
		<path class="st1" d="M227.7,18.7c-1.6,0-2.9,1.3-2.9,2.9c0,1.6,1.3,2.9,2.9,2.9c1.6,0,2.9-1.3,2.9-2.9
			C230.6,20,229.3,18.7,227.7,18.7"/>
		<path class="st1" d="M197.6,43.1h43.1V0h-43.1V43.1z M202.4,38.2V4.8h33.4v15.5v2.4v15.5H202.4z"/>
	</g>
</g>
</svg>
